<mxfile host="app.diagrams.net" modified="2022-08-01T01:44:58.100Z" agent="5.0 (Macintosh; Intel Mac OS X 10_15_7) AppleWebKit/537.36 (KHTML, like Gecko) Chrome/103.0.5060.134 Safari/537.36" etag="gKgWb6U4SLYfmfj_iu9S" version="20.2.2" type="github" pages="2">
  <diagram id="i7NFviWFwoBkr3I97WRU" name="App">
    <mxGraphModel dx="1572" dy="1960" grid="1" gridSize="10" guides="1" tooltips="1" connect="1" arrows="1" fold="1" page="1" pageScale="1" pageWidth="850" pageHeight="1100" math="0" shadow="0">
      <root>
        <mxCell id="0" />
        <mxCell id="1" parent="0" />
        <mxCell id="7M7BYpPKWH512ouEKAKs-9" style="edgeStyle=orthogonalEdgeStyle;rounded=0;orthogonalLoop=1;jettySize=auto;html=1;startArrow=classic;startFill=1;" parent="1" source="7M7BYpPKWH512ouEKAKs-1" target="7M7BYpPKWH512ouEKAKs-3" edge="1">
          <mxGeometry relative="1" as="geometry" />
        </mxCell>
        <mxCell id="7M7BYpPKWH512ouEKAKs-1" value="Card" style="rounded=1;whiteSpace=wrap;html=1;" parent="1" vertex="1">
          <mxGeometry x="70" y="140" width="120" height="60" as="geometry" />
        </mxCell>
        <mxCell id="7M7BYpPKWH512ouEKAKs-25" style="edgeStyle=orthogonalEdgeStyle;shape=connector;rounded=0;orthogonalLoop=1;jettySize=auto;html=1;entryX=0;entryY=0.5;entryDx=0;entryDy=0;labelBackgroundColor=default;fontFamily=Helvetica;fontSize=11;fontColor=default;endArrow=classic;strokeColor=default;" parent="1" source="7M7BYpPKWH512ouEKAKs-2" target="7M7BYpPKWH512ouEKAKs-23" edge="1">
          <mxGeometry relative="1" as="geometry" />
        </mxCell>
        <mxCell id="7M7BYpPKWH512ouEKAKs-2" value="Booking" style="rounded=1;whiteSpace=wrap;html=1;" parent="1" vertex="1">
          <mxGeometry x="520" y="140" width="120" height="60" as="geometry" />
        </mxCell>
        <mxCell id="7M7BYpPKWH512ouEKAKs-8" style="edgeStyle=orthogonalEdgeStyle;rounded=0;orthogonalLoop=1;jettySize=auto;html=1;startArrow=classic;startFill=1;" parent="1" source="7M7BYpPKWH512ouEKAKs-3" target="7M7BYpPKWH512ouEKAKs-2" edge="1">
          <mxGeometry relative="1" as="geometry" />
        </mxCell>
        <mxCell id="7M7BYpPKWH512ouEKAKs-3" value="BookingList" style="rounded=1;whiteSpace=wrap;html=1;" parent="1" vertex="1">
          <mxGeometry x="300" y="140" width="120" height="60" as="geometry" />
        </mxCell>
        <mxCell id="7M7BYpPKWH512ouEKAKs-4" value="Data" style="shape=cylinder3;whiteSpace=wrap;html=1;boundedLbl=1;backgroundOutline=1;size=15;" parent="1" vertex="1">
          <mxGeometry x="740" y="20" width="60" height="80" as="geometry" />
        </mxCell>
        <mxCell id="7M7BYpPKWH512ouEKAKs-7" style="edgeStyle=orthogonalEdgeStyle;rounded=0;orthogonalLoop=1;jettySize=auto;html=1;" parent="1" source="7M7BYpPKWH512ouEKAKs-6" target="7M7BYpPKWH512ouEKAKs-2" edge="1">
          <mxGeometry relative="1" as="geometry" />
        </mxCell>
        <mxCell id="7M7BYpPKWH512ouEKAKs-6" value="Greating" style="rounded=1;whiteSpace=wrap;html=1;" parent="1" vertex="1">
          <mxGeometry x="520" y="10" width="120" height="60" as="geometry" />
        </mxCell>
        <mxCell id="7M7BYpPKWH512ouEKAKs-12" style="edgeStyle=orthogonalEdgeStyle;rounded=0;orthogonalLoop=1;jettySize=auto;html=1;entryX=0.5;entryY=1;entryDx=0;entryDy=0;" parent="1" source="7M7BYpPKWH512ouEKAKs-11" target="7M7BYpPKWH512ouEKAKs-1" edge="1">
          <mxGeometry relative="1" as="geometry" />
        </mxCell>
        <mxCell id="7M7BYpPKWH512ouEKAKs-11" value="BookinBtn" style="rounded=1;whiteSpace=wrap;html=1;" parent="1" vertex="1">
          <mxGeometry x="70" y="250" width="120" height="60" as="geometry" />
        </mxCell>
        <mxCell id="7M7BYpPKWH512ouEKAKs-13" value="BookingBtn.css" style="rounded=1;whiteSpace=wrap;html=1;" parent="1" vertex="1">
          <mxGeometry x="70" y="320" width="120" height="20" as="geometry" />
        </mxCell>
        <mxCell id="7M7BYpPKWH512ouEKAKs-14" value="Flex.css" style="rounded=1;whiteSpace=wrap;html=1;" parent="1" vertex="1">
          <mxGeometry x="300" y="100" width="120" height="30" as="geometry" />
        </mxCell>
        <mxCell id="7M7BYpPKWH512ouEKAKs-15" value="Card.css" style="rounded=1;whiteSpace=wrap;html=1;" parent="1" vertex="1">
          <mxGeometry x="70" y="110" width="120" height="20" as="geometry" />
        </mxCell>
        <mxCell id="7M7BYpPKWH512ouEKAKs-16" value="Greating.css" style="rounded=1;whiteSpace=wrap;html=1;" parent="1" vertex="1">
          <mxGeometry x="520" y="-20" width="120" height="20" as="geometry" />
        </mxCell>
        <mxCell id="7M7BYpPKWH512ouEKAKs-17" value="ImgSize.css" style="rounded=1;whiteSpace=wrap;html=1;" parent="1" vertex="1">
          <mxGeometry x="70" y="80" width="120" height="20" as="geometry" />
        </mxCell>
        <mxCell id="7M7BYpPKWH512ouEKAKs-18" value="ImgSize.css" style="rounded=1;whiteSpace=wrap;html=1;" parent="1" vertex="1">
          <mxGeometry x="520" y="-50" width="120" height="20" as="geometry" />
        </mxCell>
        <mxCell id="7M7BYpPKWH512ouEKAKs-21" style="edgeStyle=orthogonalEdgeStyle;rounded=0;orthogonalLoop=1;jettySize=auto;html=1;entryX=0.5;entryY=1;entryDx=0;entryDy=0;" parent="1" source="7M7BYpPKWH512ouEKAKs-20" target="7M7BYpPKWH512ouEKAKs-2" edge="1">
          <mxGeometry relative="1" as="geometry" />
        </mxCell>
        <mxCell id="7M7BYpPKWH512ouEKAKs-20" value="Login" style="rounded=1;whiteSpace=wrap;html=1;" parent="1" vertex="1">
          <mxGeometry x="520" y="250" width="120" height="60" as="geometry" />
        </mxCell>
        <mxCell id="7M7BYpPKWH512ouEKAKs-22" value="NotFound" style="rounded=1;whiteSpace=wrap;html=1;" parent="1" vertex="1">
          <mxGeometry x="720" y="250" width="120" height="40" as="geometry" />
        </mxCell>
        <mxCell id="7M7BYpPKWH512ouEKAKs-26" style="edgeStyle=orthogonalEdgeStyle;shape=connector;rounded=0;orthogonalLoop=1;jettySize=auto;html=1;entryX=0.5;entryY=0;entryDx=0;entryDy=0;labelBackgroundColor=default;fontFamily=Helvetica;fontSize=11;fontColor=default;endArrow=classic;strokeColor=default;" parent="1" source="7M7BYpPKWH512ouEKAKs-23" target="7M7BYpPKWH512ouEKAKs-22" edge="1">
          <mxGeometry relative="1" as="geometry" />
        </mxCell>
        <mxCell id="7M7BYpPKWH512ouEKAKs-28" value="" style="edgeStyle=orthogonalEdgeStyle;shape=connector;rounded=0;orthogonalLoop=1;jettySize=auto;html=1;labelBackgroundColor=default;fontFamily=Helvetica;fontSize=11;fontColor=default;endArrow=classic;strokeColor=default;" parent="1" source="7M7BYpPKWH512ouEKAKs-23" target="7M7BYpPKWH512ouEKAKs-27" edge="1">
          <mxGeometry relative="1" as="geometry" />
        </mxCell>
        <mxCell id="7M7BYpPKWH512ouEKAKs-23" value="App.js&lt;br&gt;Router()" style="rounded=1;whiteSpace=wrap;html=1;" parent="1" vertex="1">
          <mxGeometry x="720" y="140" width="120" height="60" as="geometry" />
        </mxCell>
        <mxCell id="7M7BYpPKWH512ouEKAKs-30" value="" style="edgeStyle=orthogonalEdgeStyle;shape=connector;rounded=0;orthogonalLoop=1;jettySize=auto;html=1;labelBackgroundColor=default;fontFamily=Helvetica;fontSize=11;fontColor=default;endArrow=classic;strokeColor=default;" parent="1" source="7M7BYpPKWH512ouEKAKs-27" target="7M7BYpPKWH512ouEKAKs-29" edge="1">
          <mxGeometry relative="1" as="geometry" />
        </mxCell>
        <mxCell id="7M7BYpPKWH512ouEKAKs-27" value="Index.js" style="rounded=1;whiteSpace=wrap;html=1;" parent="1" vertex="1">
          <mxGeometry x="920" y="120" width="120" height="100" as="geometry" />
        </mxCell>
        <mxCell id="7M7BYpPKWH512ouEKAKs-29" value="Index.html" style="rounded=1;whiteSpace=wrap;html=1;" parent="1" vertex="1">
          <mxGeometry x="1120" y="140" width="120" height="60" as="geometry" />
        </mxCell>
        <mxCell id="7M7BYpPKWH512ouEKAKs-31" value="Root_Component" style="rounded=1;whiteSpace=wrap;html=1;" parent="1" vertex="1">
          <mxGeometry x="930" y="190" width="100" height="20" as="geometry" />
        </mxCell>
        <mxCell id="7M7BYpPKWH512ouEKAKs-32" style="edgeStyle=orthogonalEdgeStyle;rounded=0;orthogonalLoop=1;jettySize=auto;html=1;startArrow=classic;startFill=1;" parent="1" source="7M7BYpPKWH512ouEKAKs-33" target="7M7BYpPKWH512ouEKAKs-37" edge="1">
          <mxGeometry relative="1" as="geometry" />
        </mxCell>
        <mxCell id="7M7BYpPKWH512ouEKAKs-33" value="Card" style="rounded=1;whiteSpace=wrap;html=1;" parent="1" vertex="1">
          <mxGeometry x="80" y="900" width="120" height="60" as="geometry" />
        </mxCell>
        <mxCell id="7M7BYpPKWH512ouEKAKs-34" style="edgeStyle=orthogonalEdgeStyle;shape=connector;rounded=0;orthogonalLoop=1;jettySize=auto;html=1;entryX=0;entryY=0.5;entryDx=0;entryDy=0;labelBackgroundColor=default;fontFamily=Helvetica;fontSize=11;fontColor=default;endArrow=classic;strokeColor=default;" parent="1" source="7M7BYpPKWH512ouEKAKs-35" target="7M7BYpPKWH512ouEKAKs-54" edge="1">
          <mxGeometry relative="1" as="geometry" />
        </mxCell>
        <mxCell id="7M7BYpPKWH512ouEKAKs-35" value="Booking" style="rounded=1;whiteSpace=wrap;html=1;" parent="1" vertex="1">
          <mxGeometry x="530" y="900" width="120" height="60" as="geometry" />
        </mxCell>
        <mxCell id="7M7BYpPKWH512ouEKAKs-36" style="edgeStyle=orthogonalEdgeStyle;rounded=0;orthogonalLoop=1;jettySize=auto;html=1;startArrow=classic;startFill=1;" parent="1" source="7M7BYpPKWH512ouEKAKs-37" target="7M7BYpPKWH512ouEKAKs-35" edge="1">
          <mxGeometry relative="1" as="geometry" />
        </mxCell>
        <mxCell id="7M7BYpPKWH512ouEKAKs-37" value="BookingList" style="rounded=1;whiteSpace=wrap;html=1;" parent="1" vertex="1">
          <mxGeometry x="310" y="900" width="120" height="60" as="geometry" />
        </mxCell>
        <mxCell id="7M7BYpPKWH512ouEKAKs-38" value="Data" style="shape=cylinder3;whiteSpace=wrap;html=1;boundedLbl=1;backgroundOutline=1;size=15;" parent="1" vertex="1">
          <mxGeometry x="750" y="780" width="60" height="80" as="geometry" />
        </mxCell>
        <mxCell id="7M7BYpPKWH512ouEKAKs-39" style="edgeStyle=orthogonalEdgeStyle;rounded=0;orthogonalLoop=1;jettySize=auto;html=1;" parent="1" source="7M7BYpPKWH512ouEKAKs-40" target="7M7BYpPKWH512ouEKAKs-35" edge="1">
          <mxGeometry relative="1" as="geometry" />
        </mxCell>
        <mxCell id="7M7BYpPKWH512ouEKAKs-40" value="Greating" style="rounded=1;whiteSpace=wrap;html=1;" parent="1" vertex="1">
          <mxGeometry x="530" y="770" width="120" height="60" as="geometry" />
        </mxCell>
        <mxCell id="7M7BYpPKWH512ouEKAKs-41" style="edgeStyle=orthogonalEdgeStyle;rounded=0;orthogonalLoop=1;jettySize=auto;html=1;entryX=0.5;entryY=1;entryDx=0;entryDy=0;" parent="1" source="7M7BYpPKWH512ouEKAKs-42" target="7M7BYpPKWH512ouEKAKs-33" edge="1">
          <mxGeometry relative="1" as="geometry" />
        </mxCell>
        <mxCell id="7M7BYpPKWH512ouEKAKs-42" value="BookinBtn" style="rounded=1;whiteSpace=wrap;html=1;" parent="1" vertex="1">
          <mxGeometry x="80" y="1010" width="120" height="60" as="geometry" />
        </mxCell>
        <mxCell id="7M7BYpPKWH512ouEKAKs-48" value="ImgSize.css" style="rounded=1;whiteSpace=wrap;html=1;" parent="1" vertex="1">
          <mxGeometry x="510" y="390" width="120" height="20" as="geometry" />
        </mxCell>
        <mxCell id="7M7BYpPKWH512ouEKAKs-49" style="edgeStyle=orthogonalEdgeStyle;rounded=0;orthogonalLoop=1;jettySize=auto;html=1;entryX=0.5;entryY=1;entryDx=0;entryDy=0;" parent="1" source="7M7BYpPKWH512ouEKAKs-50" target="7M7BYpPKWH512ouEKAKs-35" edge="1">
          <mxGeometry relative="1" as="geometry" />
        </mxCell>
        <mxCell id="7M7BYpPKWH512ouEKAKs-50" value="Login" style="rounded=1;whiteSpace=wrap;html=1;" parent="1" vertex="1">
          <mxGeometry x="530" y="1020" width="120" height="60" as="geometry" />
        </mxCell>
        <mxCell id="7M7BYpPKWH512ouEKAKs-51" value="NotFound" style="rounded=1;whiteSpace=wrap;html=1;" parent="1" vertex="1">
          <mxGeometry x="730" y="1010" width="120" height="40" as="geometry" />
        </mxCell>
        <mxCell id="7M7BYpPKWH512ouEKAKs-52" style="edgeStyle=orthogonalEdgeStyle;shape=connector;rounded=0;orthogonalLoop=1;jettySize=auto;html=1;entryX=0.5;entryY=0;entryDx=0;entryDy=0;labelBackgroundColor=default;fontFamily=Helvetica;fontSize=11;fontColor=default;endArrow=classic;strokeColor=default;" parent="1" source="7M7BYpPKWH512ouEKAKs-54" target="7M7BYpPKWH512ouEKAKs-51" edge="1">
          <mxGeometry relative="1" as="geometry" />
        </mxCell>
        <mxCell id="7M7BYpPKWH512ouEKAKs-53" value="" style="edgeStyle=orthogonalEdgeStyle;shape=connector;rounded=0;orthogonalLoop=1;jettySize=auto;html=1;labelBackgroundColor=default;fontFamily=Helvetica;fontSize=11;fontColor=default;endArrow=classic;strokeColor=default;" parent="1" source="7M7BYpPKWH512ouEKAKs-54" target="7M7BYpPKWH512ouEKAKs-56" edge="1">
          <mxGeometry relative="1" as="geometry" />
        </mxCell>
        <mxCell id="7M7BYpPKWH512ouEKAKs-54" value="App.js&lt;br&gt;Router()" style="rounded=1;whiteSpace=wrap;html=1;" parent="1" vertex="1">
          <mxGeometry x="730" y="900" width="120" height="60" as="geometry" />
        </mxCell>
        <mxCell id="7M7BYpPKWH512ouEKAKs-55" value="" style="edgeStyle=orthogonalEdgeStyle;shape=connector;rounded=0;orthogonalLoop=1;jettySize=auto;html=1;labelBackgroundColor=default;fontFamily=Helvetica;fontSize=11;fontColor=default;endArrow=classic;strokeColor=default;" parent="1" source="7M7BYpPKWH512ouEKAKs-56" target="7M7BYpPKWH512ouEKAKs-57" edge="1">
          <mxGeometry relative="1" as="geometry" />
        </mxCell>
        <mxCell id="7M7BYpPKWH512ouEKAKs-56" value="Index.js" style="rounded=1;whiteSpace=wrap;html=1;verticalAlign=top;" parent="1" vertex="1">
          <mxGeometry x="930" y="900" width="120" height="60" as="geometry" />
        </mxCell>
        <mxCell id="7M7BYpPKWH512ouEKAKs-57" value="Index.html" style="rounded=1;whiteSpace=wrap;html=1;" parent="1" vertex="1">
          <mxGeometry x="1130" y="900" width="120" height="60" as="geometry" />
        </mxCell>
        <mxCell id="7M7BYpPKWH512ouEKAKs-58" value="Root_Component" style="rounded=1;whiteSpace=wrap;html=1;" parent="1" vertex="1">
          <mxGeometry x="940" y="930" width="100" height="20" as="geometry" />
        </mxCell>
        <mxCell id="7M7BYpPKWH512ouEKAKs-59" value="Booking" style="rounded=1;whiteSpace=wrap;html=1;" parent="1" vertex="1">
          <mxGeometry x="530" y="1170" width="120" height="60" as="geometry" />
        </mxCell>
        <mxCell id="7M7BYpPKWH512ouEKAKs-60" style="edgeStyle=orthogonalEdgeStyle;rounded=0;orthogonalLoop=1;jettySize=auto;html=1;entryX=0.5;entryY=1;entryDx=0;entryDy=0;" parent="1" source="7M7BYpPKWH512ouEKAKs-61" target="7M7BYpPKWH512ouEKAKs-59" edge="1">
          <mxGeometry relative="1" as="geometry" />
        </mxCell>
        <mxCell id="7M7BYpPKWH512ouEKAKs-61" value="Login" style="rounded=1;whiteSpace=wrap;html=1;" parent="1" vertex="1">
          <mxGeometry x="530" y="1290" width="120" height="60" as="geometry" />
        </mxCell>
        <mxCell id="7M7BYpPKWH512ouEKAKs-62" value="param: nombre" style="text;html=1;strokeColor=none;fillColor=none;align=center;verticalAlign=middle;whiteSpace=wrap;rounded=0;fontFamily=Helvetica;fontSize=11;fontColor=default;" parent="1" vertex="1">
          <mxGeometry x="650" y="1250" width="130" height="30" as="geometry" />
        </mxCell>
        <mxCell id="7M7BYpPKWH512ouEKAKs-66" value="C" style="rounded=1;whiteSpace=wrap;html=1;" parent="1" vertex="1">
          <mxGeometry x="83" y="904" width="20" height="20" as="geometry" />
        </mxCell>
        <mxCell id="7M7BYpPKWH512ouEKAKs-68" value="F" style="rounded=1;whiteSpace=wrap;html=1;" parent="1" vertex="1">
          <mxGeometry x="313" y="904" width="20" height="20" as="geometry" />
        </mxCell>
        <mxCell id="7M7BYpPKWH512ouEKAKs-69" value="FP" style="rounded=1;whiteSpace=wrap;html=1;" parent="1" vertex="1">
          <mxGeometry x="536" y="904" width="20" height="20" as="geometry" />
        </mxCell>
        <mxCell id="7M7BYpPKWH512ouEKAKs-70" value="F" style="rounded=1;whiteSpace=wrap;html=1;" parent="1" vertex="1">
          <mxGeometry x="90" y="1020" width="20" height="20" as="geometry" />
        </mxCell>
        <mxCell id="7M7BYpPKWH512ouEKAKs-72" value="F" style="rounded=1;whiteSpace=wrap;html=1;" parent="1" vertex="1">
          <mxGeometry x="536" y="1030" width="20" height="20" as="geometry" />
        </mxCell>
        <mxCell id="7M7BYpPKWH512ouEKAKs-73" value="F" style="rounded=1;whiteSpace=wrap;html=1;" parent="1" vertex="1">
          <mxGeometry x="536" y="775" width="20" height="20" as="geometry" />
        </mxCell>
        <mxCell id="7M7BYpPKWH512ouEKAKs-75" value="F" style="rounded=1;whiteSpace=wrap;html=1;" parent="1" vertex="1">
          <mxGeometry x="734" y="904" width="20" height="20" as="geometry" />
        </mxCell>
        <mxCell id="7M7BYpPKWH512ouEKAKs-76" value="F" style="rounded=1;whiteSpace=wrap;html=1;" parent="1" vertex="1">
          <mxGeometry x="734" y="1015" width="20" height="20" as="geometry" />
        </mxCell>
      </root>
    </mxGraphModel>
  </diagram>
  <diagram name="AppV1" id="vuUeg9Izrc_GwPg23hsz">
    <mxGraphModel dx="925" dy="1606" grid="1" gridSize="10" guides="1" tooltips="1" connect="1" arrows="1" fold="1" page="1" pageScale="1" pageWidth="850" pageHeight="1100" math="0" shadow="0">
      <root>
        <mxCell id="l4Xo0yLanvVGUKqScpAe-0" />
        <mxCell id="l4Xo0yLanvVGUKqScpAe-1" parent="l4Xo0yLanvVGUKqScpAe-0" />
        <mxCell id="l4Xo0yLanvVGUKqScpAe-2" style="edgeStyle=orthogonalEdgeStyle;rounded=0;orthogonalLoop=1;jettySize=auto;html=1;startArrow=classic;startFill=1;" edge="1" parent="l4Xo0yLanvVGUKqScpAe-1" source="l4Xo0yLanvVGUKqScpAe-3" target="l4Xo0yLanvVGUKqScpAe-7">
          <mxGeometry relative="1" as="geometry" />
        </mxCell>
        <mxCell id="l4Xo0yLanvVGUKqScpAe-3" value="Card" style="rounded=1;whiteSpace=wrap;html=1;" vertex="1" parent="l4Xo0yLanvVGUKqScpAe-1">
          <mxGeometry x="70" y="140" width="120" height="60" as="geometry" />
        </mxCell>
        <mxCell id="l4Xo0yLanvVGUKqScpAe-4" style="edgeStyle=orthogonalEdgeStyle;shape=connector;rounded=0;orthogonalLoop=1;jettySize=auto;html=1;entryX=0;entryY=0.5;entryDx=0;entryDy=0;labelBackgroundColor=default;fontFamily=Helvetica;fontSize=11;fontColor=default;endArrow=classic;strokeColor=default;" edge="1" parent="l4Xo0yLanvVGUKqScpAe-1" source="l4Xo0yLanvVGUKqScpAe-5" target="l4Xo0yLanvVGUKqScpAe-24">
          <mxGeometry relative="1" as="geometry" />
        </mxCell>
        <mxCell id="l4Xo0yLanvVGUKqScpAe-5" value="Booking" style="rounded=1;whiteSpace=wrap;html=1;" vertex="1" parent="l4Xo0yLanvVGUKqScpAe-1">
          <mxGeometry x="520" y="140" width="120" height="60" as="geometry" />
        </mxCell>
        <mxCell id="l4Xo0yLanvVGUKqScpAe-6" style="edgeStyle=orthogonalEdgeStyle;rounded=0;orthogonalLoop=1;jettySize=auto;html=1;startArrow=classic;startFill=1;" edge="1" parent="l4Xo0yLanvVGUKqScpAe-1" source="l4Xo0yLanvVGUKqScpAe-7" target="l4Xo0yLanvVGUKqScpAe-5">
          <mxGeometry relative="1" as="geometry" />
        </mxCell>
        <mxCell id="l4Xo0yLanvVGUKqScpAe-7" value="BookingList" style="rounded=1;whiteSpace=wrap;html=1;" vertex="1" parent="l4Xo0yLanvVGUKqScpAe-1">
          <mxGeometry x="300" y="140" width="120" height="60" as="geometry" />
        </mxCell>
        <mxCell id="t2-6uIU1zLgtxnLEI5Da-2" style="edgeStyle=orthogonalEdgeStyle;rounded=0;orthogonalLoop=1;jettySize=auto;html=1;fontColor=#000000;" edge="1" parent="l4Xo0yLanvVGUKqScpAe-1" source="l4Xo0yLanvVGUKqScpAe-8" target="l4Xo0yLanvVGUKqScpAe-5">
          <mxGeometry relative="1" as="geometry" />
        </mxCell>
        <mxCell id="l4Xo0yLanvVGUKqScpAe-8" value="Data" style="shape=cylinder3;whiteSpace=wrap;html=1;boundedLbl=1;backgroundOutline=1;size=15;" vertex="1" parent="l4Xo0yLanvVGUKqScpAe-1">
          <mxGeometry x="550" y="280" width="60" height="80" as="geometry" />
        </mxCell>
        <mxCell id="l4Xo0yLanvVGUKqScpAe-9" style="edgeStyle=orthogonalEdgeStyle;rounded=0;orthogonalLoop=1;jettySize=auto;html=1;" edge="1" parent="l4Xo0yLanvVGUKqScpAe-1" source="l4Xo0yLanvVGUKqScpAe-10" target="l4Xo0yLanvVGUKqScpAe-5">
          <mxGeometry relative="1" as="geometry" />
        </mxCell>
        <mxCell id="l4Xo0yLanvVGUKqScpAe-10" value="Greating" style="rounded=1;whiteSpace=wrap;html=1;" vertex="1" parent="l4Xo0yLanvVGUKqScpAe-1">
          <mxGeometry x="520" y="10" width="120" height="60" as="geometry" />
        </mxCell>
        <mxCell id="l4Xo0yLanvVGUKqScpAe-11" style="edgeStyle=orthogonalEdgeStyle;rounded=0;orthogonalLoop=1;jettySize=auto;html=1;entryX=0.5;entryY=1;entryDx=0;entryDy=0;" edge="1" parent="l4Xo0yLanvVGUKqScpAe-1" source="l4Xo0yLanvVGUKqScpAe-12" target="l4Xo0yLanvVGUKqScpAe-3">
          <mxGeometry relative="1" as="geometry" />
        </mxCell>
        <mxCell id="cfKQFFXwsxxuIbn_4OPn-1" value="" style="edgeStyle=orthogonalEdgeStyle;rounded=0;orthogonalLoop=1;jettySize=auto;html=1;" edge="1" parent="l4Xo0yLanvVGUKqScpAe-1" source="l4Xo0yLanvVGUKqScpAe-12" target="cfKQFFXwsxxuIbn_4OPn-0">
          <mxGeometry relative="1" as="geometry" />
        </mxCell>
        <mxCell id="l4Xo0yLanvVGUKqScpAe-12" value="BookinForm" style="rounded=1;whiteSpace=wrap;html=1;" vertex="1" parent="l4Xo0yLanvVGUKqScpAe-1">
          <mxGeometry x="70" y="250" width="120" height="70" as="geometry" />
        </mxCell>
        <mxCell id="l4Xo0yLanvVGUKqScpAe-14" value="Flex.css" style="rounded=1;whiteSpace=wrap;html=1;" vertex="1" parent="l4Xo0yLanvVGUKqScpAe-1">
          <mxGeometry x="300" y="100" width="120" height="30" as="geometry" />
        </mxCell>
        <mxCell id="l4Xo0yLanvVGUKqScpAe-15" value="Card.css" style="rounded=1;whiteSpace=wrap;html=1;" vertex="1" parent="l4Xo0yLanvVGUKqScpAe-1">
          <mxGeometry x="70" y="110" width="120" height="20" as="geometry" />
        </mxCell>
        <mxCell id="l4Xo0yLanvVGUKqScpAe-16" value="Greating.css" style="rounded=1;whiteSpace=wrap;html=1;" vertex="1" parent="l4Xo0yLanvVGUKqScpAe-1">
          <mxGeometry x="520" y="-20" width="120" height="20" as="geometry" />
        </mxCell>
        <mxCell id="l4Xo0yLanvVGUKqScpAe-17" value="ImgSize.css" style="rounded=1;whiteSpace=wrap;html=1;" vertex="1" parent="l4Xo0yLanvVGUKqScpAe-1">
          <mxGeometry x="70" y="80" width="120" height="20" as="geometry" />
        </mxCell>
        <mxCell id="l4Xo0yLanvVGUKqScpAe-18" value="ImgSize.css" style="rounded=1;whiteSpace=wrap;html=1;" vertex="1" parent="l4Xo0yLanvVGUKqScpAe-1">
          <mxGeometry x="520" y="-50" width="120" height="20" as="geometry" />
        </mxCell>
        <mxCell id="l4Xo0yLanvVGUKqScpAe-21" value="NotFound" style="rounded=1;whiteSpace=wrap;html=1;" vertex="1" parent="l4Xo0yLanvVGUKqScpAe-1">
          <mxGeometry x="720" y="250" width="120" height="40" as="geometry" />
        </mxCell>
        <mxCell id="l4Xo0yLanvVGUKqScpAe-22" style="edgeStyle=orthogonalEdgeStyle;shape=connector;rounded=0;orthogonalLoop=1;jettySize=auto;html=1;entryX=0.5;entryY=0;entryDx=0;entryDy=0;labelBackgroundColor=default;fontFamily=Helvetica;fontSize=11;fontColor=default;endArrow=classic;strokeColor=default;" edge="1" parent="l4Xo0yLanvVGUKqScpAe-1" source="l4Xo0yLanvVGUKqScpAe-24" target="l4Xo0yLanvVGUKqScpAe-21">
          <mxGeometry relative="1" as="geometry" />
        </mxCell>
        <mxCell id="l4Xo0yLanvVGUKqScpAe-23" value="" style="edgeStyle=orthogonalEdgeStyle;shape=connector;rounded=0;orthogonalLoop=1;jettySize=auto;html=1;labelBackgroundColor=default;fontFamily=Helvetica;fontSize=11;fontColor=default;endArrow=classic;strokeColor=default;" edge="1" parent="l4Xo0yLanvVGUKqScpAe-1" source="l4Xo0yLanvVGUKqScpAe-24" target="l4Xo0yLanvVGUKqScpAe-26">
          <mxGeometry relative="1" as="geometry" />
        </mxCell>
        <mxCell id="l4Xo0yLanvVGUKqScpAe-24" value="App.js&lt;br&gt;Router()" style="rounded=1;whiteSpace=wrap;html=1;" vertex="1" parent="l4Xo0yLanvVGUKqScpAe-1">
          <mxGeometry x="720" y="140" width="120" height="60" as="geometry" />
        </mxCell>
        <mxCell id="l4Xo0yLanvVGUKqScpAe-25" value="" style="edgeStyle=orthogonalEdgeStyle;shape=connector;rounded=0;orthogonalLoop=1;jettySize=auto;html=1;labelBackgroundColor=default;fontFamily=Helvetica;fontSize=11;fontColor=default;endArrow=classic;strokeColor=default;" edge="1" parent="l4Xo0yLanvVGUKqScpAe-1" source="l4Xo0yLanvVGUKqScpAe-26" target="l4Xo0yLanvVGUKqScpAe-27">
          <mxGeometry relative="1" as="geometry" />
        </mxCell>
        <mxCell id="l4Xo0yLanvVGUKqScpAe-26" value="Index.js" style="rounded=1;whiteSpace=wrap;html=1;" vertex="1" parent="l4Xo0yLanvVGUKqScpAe-1">
          <mxGeometry x="920" y="130" width="120" height="80" as="geometry" />
        </mxCell>
        <mxCell id="l4Xo0yLanvVGUKqScpAe-27" value="Index.html" style="rounded=1;whiteSpace=wrap;html=1;" vertex="1" parent="l4Xo0yLanvVGUKqScpAe-1">
          <mxGeometry x="1120" y="140" width="120" height="60" as="geometry" />
        </mxCell>
        <mxCell id="l4Xo0yLanvVGUKqScpAe-28" value="Root_Component" style="rounded=1;whiteSpace=wrap;html=1;" vertex="1" parent="l4Xo0yLanvVGUKqScpAe-1">
          <mxGeometry x="930" y="180" width="100" height="20" as="geometry" />
        </mxCell>
        <mxCell id="cfKQFFXwsxxuIbn_4OPn-0" value="Data" style="shape=cylinder3;whiteSpace=wrap;html=1;boundedLbl=1;backgroundOutline=1;size=15;" vertex="1" parent="l4Xo0yLanvVGUKqScpAe-1">
          <mxGeometry x="100" y="390" width="60" height="70" as="geometry" />
        </mxCell>
        <mxCell id="cfKQFFXwsxxuIbn_4OPn-2" value="&lt;div style=&quot;font-family: Menlo, Monaco, &amp;quot;Courier New&amp;quot;, monospace; line-height: 18px;&quot;&gt;BookingForm.css&lt;/div&gt;" style="text;html=1;align=center;verticalAlign=middle;resizable=0;points=[];autosize=1;labelBackgroundColor=none;" vertex="1" parent="l4Xo0yLanvVGUKqScpAe-1">
          <mxGeometry x="65" y="220" width="130" height="30" as="geometry" />
        </mxCell>
        <mxCell id="NvtfCHJTPXxdl2CFyHV6-0" value="C" style="rounded=1;whiteSpace=wrap;html=1;" vertex="1" parent="l4Xo0yLanvVGUKqScpAe-1">
          <mxGeometry x="70" y="150" width="20" height="20" as="geometry" />
        </mxCell>
        <mxCell id="-KYeB8nikU1_tTDbGs6g-0" value="F" style="rounded=1;whiteSpace=wrap;html=1;" vertex="1" parent="l4Xo0yLanvVGUKqScpAe-1">
          <mxGeometry x="70" y="260" width="20" height="20" as="geometry" />
        </mxCell>
        <mxCell id="-KYeB8nikU1_tTDbGs6g-2" value="F" style="rounded=1;whiteSpace=wrap;html=1;" vertex="1" parent="l4Xo0yLanvVGUKqScpAe-1">
          <mxGeometry x="300" y="150" width="20" height="20" as="geometry" />
        </mxCell>
        <mxCell id="t2-6uIU1zLgtxnLEI5Da-0" value="F" style="rounded=1;whiteSpace=wrap;html=1;" vertex="1" parent="l4Xo0yLanvVGUKqScpAe-1">
          <mxGeometry x="520" y="150" width="20" height="20" as="geometry" />
        </mxCell>
        <mxCell id="t2-6uIU1zLgtxnLEI5Da-1" value="F" style="rounded=1;whiteSpace=wrap;html=1;" vertex="1" parent="l4Xo0yLanvVGUKqScpAe-1">
          <mxGeometry x="720" y="150" width="20" height="20" as="geometry" />
        </mxCell>
      </root>
    </mxGraphModel>
  </diagram>
</mxfile>
